<svg width="1281" height="501" viewBox="0 0 1281 501" fill="none" xmlns="http://www.w3.org/2000/svg">
<path d="M1280.25 500.152H0.25V306.688C23.3455 291.018 51.642 275.633 85.5195 264.911C163.228 240.316 274.588 239.514 421.525 334.466C583.081 438.864 765.756 476.374 940.801 420.148C1063.72 380.666 1179.66 296.003 1280.25 161.445V500.152ZM1280.25 38.0166C1173.73 213.486 1047.93 313.267 919.699 354.455C768.244 403.104 606.919 372.115 458.975 276.513C296.412 171.464 163.835 167.751 64.6992 199.127C41.0369 206.616 19.5219 216.069 0.25 226.309V0.287109H1280.25L1280.25 38.0166Z" fill="#011323"/>
</svg>
